<svg width="740" height="298" viewBox="0 0 740 298" fill="none" xmlns="http://www.w3.org/2000/svg">
<rect width="740" height="298" rx="5" fill="white"/>
<path d="M53.9463 34.7113C43.3504 37.0241 34.2068 45.1996 30.5493 55.6341C29.2584 59.3454 29.2047 59.5605 29.0433 82.7962C28.9357 95.6511 29.0433 107 29.2047 107.968C29.5812 110.012 32.3243 113.347 34.2606 114.1C35.0136 114.369 36.8423 114.638 38.2407 114.584C41.3066 114.584 43.8345 113.185 45.3405 110.657C46.3625 108.99 46.4163 107.645 46.6852 85.4855L46.9541 62.0885L48.6215 59.1302C50.3964 55.9031 53.9463 53.1062 57.3349 52.138C58.5182 51.8153 68.0383 51.6002 81.3773 51.6002C103.215 51.6002 103.43 51.5464 105.527 50.3631C111.014 47.2435 111.067 39.2293 105.689 35.2492C104.183 34.1734 103.591 34.1196 80.947 34.0121C61.9605 33.9583 57.0121 34.0659 53.9463 34.7113Z" fill="#0071E8" fill-opacity="0.909804"/>
<path d="M184.109 34.3885C178.945 35.9483 176.633 43.2095 179.806 48.0502C181.957 51.3312 181.904 51.3312 207.506 51.6001C230.365 51.869 230.957 51.9228 233.108 53.0523C236.12 54.6659 238.648 57.3015 239.993 60.2059C241.069 62.5187 241.122 63.7558 241.391 86.0233C241.66 107.645 241.714 109.528 242.682 110.873C244.242 113.185 246.931 114.584 249.889 114.638C254.515 114.638 258.226 111.679 258.872 107.376C259.087 106.139 259.141 94.9518 259.033 82.5272C258.818 62.6263 258.71 59.5605 257.85 56.9787C255.107 48.5881 249.513 41.5959 242.467 37.9384C235.367 34.1734 235.636 34.2272 209.388 34.0658C196.157 33.9582 185.023 34.1196 184.109 34.3885Z" fill="#0071E8" fill-opacity="0.909804"/>
<path d="M93.2104 92.424C85.1424 96.1352 84.1743 107.699 91.4354 112.701L93.6406 114.261H144.038H194.436L196.641 112.701C203.902 107.699 202.934 96.1352 194.866 92.424C192.822 91.4558 190.294 91.402 144.038 91.402C97.7822 91.402 95.2542 91.4558 93.2104 92.424Z" fill="#0071E8" fill-opacity="0.909804"/>
<path d="M94.4474 137.873C91.3815 138.949 89.8755 140.132 88.2081 142.606C86.9173 144.543 86.7559 145.349 86.7559 149.007C86.7559 152.772 86.9173 153.364 88.3695 155.515C89.2839 156.752 91.1126 158.42 92.4035 159.173L94.8239 160.517H144.038H193.253L195.673 159.173C196.964 158.42 198.793 156.752 199.707 155.515C201.159 153.364 201.321 152.772 201.321 148.953C201.321 145.134 201.159 144.543 199.707 142.391C198.793 141.154 196.964 139.487 195.673 138.734L193.253 137.389L144.845 137.282C105.42 137.174 96.0609 137.282 94.4474 137.873Z" fill="#0071E8" fill-opacity="0.909804"/>
<path d="M33.2387 184.56C32.2705 185.259 30.9259 186.496 30.3342 187.303C29.2047 188.809 29.2047 189.293 29.2047 213.389V237.969L30.5494 242.003C33.1311 249.91 39.5317 257.279 46.9542 260.829C53.2472 263.841 56.3668 264.11 81.4849 263.948C103.537 263.787 104.183 263.733 105.689 262.657C108.324 260.721 109.615 258.247 109.615 255.342C109.615 251.846 108.378 249.318 105.904 247.812C103.968 246.575 103.699 246.575 80.5706 246.306L57.1736 246.037L54.2153 244.37C50.9881 242.595 48.1913 239.045 47.2231 235.657C46.9004 234.473 46.6852 224.953 46.6852 211.614C46.6852 189.777 46.6315 189.562 45.4482 187.464C44.8027 186.335 43.4043 184.936 42.3823 184.398C39.693 182.946 35.4977 183.054 33.2387 184.56Z" fill="#0071E8" fill-opacity="0.909804"/>
<path d="M93.2102 184.129C87.6165 186.604 84.9272 194.08 87.5089 199.781C88.6922 202.47 91.758 205.214 94.3935 205.967C95.792 206.397 104.613 206.504 122.362 206.397L148.234 206.236L150.6 204.622C157.915 199.405 157.27 188.432 149.363 184.398C147.427 183.43 146.028 183.376 121.072 183.376C100.418 183.43 94.5011 183.592 93.2102 184.129Z" fill="#0071E8" fill-opacity="0.909804"/>
<path d="M245.318 184.506C241.553 186.926 241.714 185.958 241.391 211.883C241.122 234.151 241.069 235.388 239.993 237.7C238.648 240.605 236.12 243.24 233.108 244.854C230.957 245.984 230.365 246.037 207.506 246.306C181.904 246.575 181.958 246.575 179.806 249.856C176.687 254.643 178.515 261.097 183.679 263.303C186.422 264.486 228.052 264.378 233.754 263.195C245.318 260.829 253.924 252.868 257.85 240.928C258.711 238.292 258.818 235.334 259.033 214.841C259.141 198.221 259.033 191.122 258.603 189.562C257.42 185.474 254.408 183.376 249.89 183.376C247.953 183.376 246.501 183.753 245.318 184.506Z" fill="#0071E8" fill-opacity="0.909804"/>
<path d="M347.581 81.072C352.317 81.072 356.456 82.0107 359.997 83.888C363.539 85.7653 366.269 88.4107 368.189 91.824C370.152 95.1947 371.133 99.0987 371.133 103.536C371.133 107.931 370.152 111.835 368.189 115.248C366.269 118.661 363.517 121.307 359.933 123.184C356.392 125.061 352.275 126 347.581 126H330.749V81.072H347.581ZM346.877 116.528C351.016 116.528 354.237 115.397 356.541 113.136C358.845 110.875 359.997 107.675 359.997 103.536C359.997 99.3973 358.845 96.176 356.541 93.872C354.237 91.568 351.016 90.416 346.877 90.416H341.693V116.528H346.877ZM393.505 126.512C390.007 126.512 386.849 125.765 384.033 124.272C381.26 122.779 379.063 120.645 377.441 117.872C375.863 115.099 375.073 111.856 375.073 108.144C375.073 104.475 375.884 101.253 377.505 98.48C379.127 95.664 381.345 93.5093 384.161 92.016C386.977 90.5227 390.135 89.776 393.633 89.776C397.132 89.776 400.289 90.5227 403.105 92.016C405.921 93.5093 408.14 95.664 409.761 98.48C411.383 101.253 412.193 104.475 412.193 108.144C412.193 111.813 411.361 115.056 409.697 117.872C408.076 120.645 405.836 122.779 402.977 124.272C400.161 125.765 397.004 126.512 393.505 126.512ZM393.505 117.04C395.596 117.04 397.367 116.272 398.817 114.736C400.311 113.2 401.057 111.003 401.057 108.144C401.057 105.285 400.332 103.088 398.881 101.552C397.473 100.016 395.724 99.248 393.633 99.248C391.5 99.248 389.729 100.016 388.321 101.552C386.913 103.045 386.209 105.243 386.209 108.144C386.209 111.003 386.892 113.2 388.257 114.736C389.665 116.272 391.415 117.04 393.505 117.04ZM415.823 108.144C415.823 104.432 416.57 101.189 418.063 98.416C419.599 95.6427 421.711 93.5093 424.399 92.016C427.13 90.5227 430.245 89.776 433.743 89.776C438.223 89.776 441.957 90.9493 444.943 93.296C447.973 95.6427 449.957 98.9493 450.895 103.216H439.247C438.266 100.485 436.367 99.12 433.551 99.12C431.546 99.12 429.946 99.9093 428.751 101.488C427.557 103.024 426.959 105.243 426.959 108.144C426.959 111.045 427.557 113.285 428.751 114.864C429.946 116.4 431.546 117.168 433.551 117.168C436.367 117.168 438.266 115.803 439.247 113.072H450.895C449.957 117.253 447.973 120.539 444.943 122.928C441.914 125.317 438.181 126.512 433.743 126.512C430.245 126.512 427.13 125.765 424.399 124.272C421.711 122.779 419.599 120.645 418.063 117.872C416.57 115.099 415.823 111.856 415.823 108.144ZM492.013 90.288V126H481.069V121.136C479.96 122.715 478.445 123.995 476.525 124.976C474.648 125.915 472.557 126.384 470.253 126.384C467.523 126.384 465.112 125.787 463.021 124.592C460.931 123.355 459.309 121.584 458.157 119.28C457.005 116.976 456.429 114.267 456.429 111.152V90.288H467.309V109.68C467.309 112.069 467.928 113.925 469.165 115.248C470.403 116.571 472.067 117.232 474.157 117.232C476.291 117.232 477.976 116.571 479.213 115.248C480.451 113.925 481.069 112.069 481.069 109.68V90.288H492.013ZM545.442 89.904C549.88 89.904 553.4 91.248 556.002 93.936C558.648 96.624 559.97 100.357 559.97 105.136V126H549.09V106.608C549.09 104.304 548.472 102.533 547.234 101.296C546.04 100.016 544.376 99.376 542.242 99.376C540.109 99.376 538.424 100.016 537.186 101.296C535.992 102.533 535.394 104.304 535.394 106.608V126H524.514V106.608C524.514 104.304 523.896 102.533 522.658 101.296C521.464 100.016 519.8 99.376 517.666 99.376C515.533 99.376 513.848 100.016 512.61 101.296C511.416 102.533 510.818 104.304 510.818 106.608V126H499.874V90.288H510.818V94.768C511.928 93.2747 513.378 92.1013 515.17 91.248C516.962 90.352 518.989 89.904 521.25 89.904C523.938 89.904 526.328 90.48 528.418 91.632C530.552 92.784 532.216 94.4267 533.41 96.56C534.648 94.5973 536.333 92.9973 538.466 91.76C540.6 90.5227 542.925 89.904 545.442 89.904ZM601.288 107.568C601.288 108.592 601.224 109.659 601.096 110.768H576.328C576.499 112.987 577.203 114.693 578.44 115.888C579.72 117.04 581.278 117.616 583.112 117.616C585.843 117.616 587.742 116.464 588.808 114.16H600.456C599.859 116.507 598.771 118.619 597.192 120.496C595.656 122.373 593.715 123.845 591.368 124.912C589.022 125.979 586.398 126.512 583.496 126.512C579.998 126.512 576.883 125.765 574.152 124.272C571.422 122.779 569.288 120.645 567.752 117.872C566.216 115.099 565.448 111.856 565.448 108.144C565.448 104.432 566.195 101.189 567.688 98.416C569.224 95.6427 571.358 93.5093 574.088 92.016C576.819 90.5227 579.955 89.776 583.496 89.776C586.952 89.776 590.024 90.5013 592.712 91.952C595.4 93.4027 597.491 95.472 598.984 98.16C600.52 100.848 601.288 103.984 601.288 107.568ZM590.088 104.688C590.088 102.811 589.448 101.317 588.168 100.208C586.888 99.0987 585.288 98.544 583.368 98.544C581.534 98.544 579.976 99.0773 578.696 100.144C577.459 101.211 576.691 102.725 576.392 104.688H590.088ZM628.822 89.904C633.003 89.904 636.331 91.2693 638.806 94C641.323 96.688 642.582 100.4 642.582 105.136V126H631.702V106.608C631.702 104.219 631.083 102.363 629.846 101.04C628.608 99.7173 626.944 99.056 624.854 99.056C622.763 99.056 621.099 99.7173 619.862 101.04C618.624 102.363 618.006 104.219 618.006 106.608V126H607.062V90.288H618.006V95.024C619.115 93.4453 620.608 92.208 622.486 91.312C624.363 90.3733 626.475 89.904 628.822 89.904ZM670.091 116.72V126H664.523C660.555 126 657.461 125.04 655.243 123.12C653.024 121.157 651.915 117.979 651.915 113.584V99.376H647.563V90.288H651.915V81.584H662.859V90.288H670.027V99.376H662.859V113.712C662.859 114.779 663.115 115.547 663.627 116.016C664.139 116.485 664.992 116.72 666.187 116.72H670.091ZM382.412 222.448C379.126 222.448 376.182 221.915 373.58 220.848C370.977 219.781 368.886 218.203 367.308 216.112C365.772 214.021 364.961 211.504 364.876 208.56H376.524C376.694 210.224 377.27 211.504 378.252 212.4C379.233 213.253 380.513 213.68 382.092 213.68C383.713 213.68 384.993 213.317 385.932 212.592C386.87 211.824 387.34 210.779 387.34 209.456C387.34 208.347 386.956 207.429 386.188 206.704C385.462 205.979 384.545 205.381 383.436 204.912C382.369 204.443 380.833 203.909 378.828 203.312C375.926 202.416 373.558 201.52 371.724 200.624C369.889 199.728 368.31 198.405 366.988 196.656C365.665 194.907 365.004 192.624 365.004 189.808C365.004 185.627 366.518 182.363 369.548 180.016C372.577 177.627 376.524 176.432 381.388 176.432C386.337 176.432 390.326 177.627 393.356 180.016C396.385 182.363 398.006 185.648 398.22 189.872H386.38C386.294 188.421 385.761 187.291 384.78 186.48C383.798 185.627 382.54 185.2 381.003 185.2C379.681 185.2 378.614 185.563 377.804 186.288C376.993 186.971 376.588 187.973 376.588 189.296C376.588 190.747 377.27 191.877 378.635 192.688C380.001 193.499 382.134 194.373 385.036 195.312C387.937 196.293 390.284 197.232 392.076 198.128C393.91 199.024 395.489 200.325 396.812 202.032C398.134 203.739 398.796 205.936 398.796 208.624C398.796 211.184 398.134 213.509 396.812 215.6C395.532 217.691 393.654 219.355 391.18 220.592C388.705 221.829 385.782 222.448 382.412 222.448ZM403.355 204.144C403.355 200.432 404.101 197.189 405.595 194.416C407.131 191.643 409.243 189.509 411.931 188.016C414.661 186.523 417.776 185.776 421.275 185.776C425.755 185.776 429.488 186.949 432.475 189.296C435.504 191.643 437.488 194.949 438.427 199.216H426.779C425.797 196.485 423.899 195.12 421.083 195.12C419.077 195.12 417.477 195.909 416.283 197.488C415.088 199.024 414.491 201.243 414.491 204.144C414.491 207.045 415.088 209.285 416.283 210.864C417.477 212.4 419.077 213.168 421.083 213.168C423.899 213.168 425.797 211.803 426.779 209.072H438.427C437.488 213.253 435.504 216.539 432.475 218.928C429.445 221.317 425.712 222.512 421.275 222.512C417.776 222.512 414.661 221.765 411.931 220.272C409.243 218.779 407.131 216.645 405.595 213.872C404.101 211.099 403.355 207.856 403.355 204.144ZM442.105 204.08C442.105 200.411 442.787 197.189 444.153 194.416C445.561 191.643 447.459 189.509 449.849 188.016C452.238 186.523 454.905 185.776 457.849 185.776C460.366 185.776 462.563 186.288 464.441 187.312C466.361 188.336 467.833 189.68 468.857 191.344V186.288H479.801V222H468.857V216.944C467.79 218.608 466.297 219.952 464.377 220.976C462.499 222 460.302 222.512 457.785 222.512C454.883 222.512 452.238 221.765 449.849 220.272C447.459 218.736 445.561 216.581 444.153 213.808C442.787 210.992 442.105 207.749 442.105 204.08ZM468.857 204.144C468.857 201.413 468.089 199.259 466.553 197.68C465.059 196.101 463.225 195.312 461.049 195.312C458.873 195.312 457.017 196.101 455.481 197.68C453.987 199.216 453.241 201.349 453.241 204.08C453.241 206.811 453.987 208.987 455.481 210.608C457.017 212.187 458.873 212.976 461.049 212.976C463.225 212.976 465.059 212.187 466.553 210.608C468.089 209.029 468.857 206.875 468.857 204.144ZM509.478 185.904C513.659 185.904 516.987 187.269 519.462 190C521.979 192.688 523.238 196.4 523.238 201.136V222H512.358V202.608C512.358 200.219 511.739 198.363 510.502 197.04C509.265 195.717 507.601 195.056 505.51 195.056C503.419 195.056 501.755 195.717 500.518 197.04C499.281 198.363 498.662 200.219 498.662 202.608V222H487.718V186.288H498.662V191.024C499.771 189.445 501.265 188.208 503.142 187.312C505.019 186.373 507.131 185.904 509.478 185.904ZM552.603 185.904C556.784 185.904 560.112 187.269 562.587 190C565.104 192.688 566.363 196.4 566.363 201.136V222H555.483V202.608C555.483 200.219 554.864 198.363 553.627 197.04C552.39 195.717 550.726 195.056 548.635 195.056C546.544 195.056 544.88 195.717 543.643 197.04C542.406 198.363 541.787 200.219 541.787 202.608V222H530.843V186.288H541.787V191.024C542.896 189.445 544.39 188.208 546.267 187.312C548.144 186.373 550.256 185.904 552.603 185.904ZM607.632 203.568C607.632 204.592 607.568 205.659 607.44 206.768H582.672C582.843 208.987 583.547 210.693 584.784 211.888C586.064 213.04 587.621 213.616 589.456 213.616C592.187 213.616 594.085 212.464 595.152 210.16H606.8C606.203 212.507 605.115 214.619 603.536 216.496C602 218.373 600.059 219.845 597.712 220.912C595.365 221.979 592.741 222.512 589.84 222.512C586.341 222.512 583.227 221.765 580.496 220.272C577.765 218.779 575.632 216.645 574.096 213.872C572.56 211.099 571.792 207.856 571.792 204.144C571.792 200.432 572.539 197.189 574.032 194.416C575.568 191.643 577.701 189.509 580.432 188.016C583.163 186.523 586.299 185.776 589.84 185.776C593.296 185.776 596.368 186.501 599.056 187.952C601.744 189.403 603.835 191.472 605.328 194.16C606.864 196.848 607.632 199.984 607.632 203.568ZM596.432 200.688C596.432 198.811 595.792 197.317 594.512 196.208C593.232 195.099 591.632 194.544 589.712 194.544C587.877 194.544 586.32 195.077 585.04 196.144C583.803 197.211 583.035 198.725 582.736 200.688H596.432ZM624.35 192.24C625.63 190.277 627.23 188.741 629.15 187.632C631.07 186.48 633.203 185.904 635.55 185.904V197.488H632.542C629.811 197.488 627.763 198.085 626.398 199.28C625.032 200.432 624.35 202.48 624.35 205.424V222H613.406V186.288H624.35V192.24Z" fill="black"/>
</svg>
